# File created by Blade
# Date/Time:  Tue Jan 27 17:21:37 2015
# Frame Rate: 120.000 fps
#------------------------------------------------------
:FULLY-SPECIFIED
:DEGREES
3597
root -1.017600 37.840244 0.983839 34.175380 11.535126 13.647627
Spine -3.236692 10.791315 -13.365637
Head -2.286682 43.734962 -17.533056
LeftShoulder -2.984814 -15.749564 6.924801
LeftArm -0.988553 -27.668296 -40.632696
LeftForeArm -1.877371 -0.000000 83.460092
LeftHand -20.952590 -0.000000 56.764439
LeftHandThumb1 -26.253704 0.000000 33.147579
RightShoulder -0.908495 -18.345726 -6.563471
RightArm 16.668993 -18.245882 55.579782
RightForeArm 189.858356 -0.000000 46.164323
RightHand -2.487872 -0.000000 8.559920
RightHandThumb1 -24.326973 -0.000000 -32.862282
LeftUpLeg -10.949394 9.381931 13.831189
LeftLeg 93.195695 -0.000000 -0.000000
LeftFoot -2.129146 3.155725 -28.604788
LeftToeBase 11.506760 -0.000000 -0.000000
RightUpLeg -31.088244 -11.319932 -1.836375
RightLeg 6.681046 -0.000000 -0.000000
RightFoot -10.331559 -4.284051 -4.249071
RightToeBase -1.554010 -0.000000 0.000000
3598
root -1.023753 37.836288 1.003771 34.143514 11.474030 13.564710
Spine -3.360980 10.825530 -13.411709
Head -2.200595 43.848536 -17.504529
LeftShoulder -3.013793 -15.719954 6.933528
LeftArm -1.048778 -27.751611 -40.611632
LeftForeArm -1.882780 -0.000000 83.487226
LeftHand -20.859671 -0.000000 56.582239
LeftHandThumb1 -26.253704 0.000000 33.147579
RightShoulder -0.917545 -18.391161 -6.539842
RightArm 16.584939 -18.254408 55.594347
RightForeArm 189.717290 -0.000000 46.100493
RightHand -2.491583 -0.000000 8.477204
RightHandThumb1 -24.326973 -0.000000 -32.862282
LeftUpLeg -10.913394 9.377148 13.946265
LeftLeg 93.580294 -0.000000 -0.000000
LeftFoot -2.062485 3.098932 -28.386543
LeftToeBase 11.604841 -0.000000 -0.000000
RightUpLeg -31.023854 -11.453599 -1.646501
RightLeg 6.552945 -0.000000 -0.000000
RightFoot -10.308723 -4.140794 -4.383264
RightToeBase -1.499677 -0.000000 0.000000
3599
root -1.030268 37.830817 1.021673 34.059772 11.403463 13.466426
Spine -3.416180 10.872716 -13.426972
Head -2.187047 43.952659 -17.521105
LeftShoulder -3.024436 -15.708076 6.935942
LeftArm -1.136560 -27.821835 -40.564666
LeftForeArm -1.842808 0.000000 83.532620
LeftHand -20.878697 -0.000000 56.475045
LeftHandThumb1 -26.253704 0.000000 33.147579
RightShoulder -0.904157 -18.481504 -6.529596
RightArm 16.594108 -18.242711 55.565984
RightForeArm 189.672245 -0.000000 45.994778
RightHand -2.427637 -0.000000 8.519460
RightHandThumb1 -24.326973 -0.000000 -32.862282
LeftUpLeg -10.815889 9.377118 14.076899
LeftLeg 93.950101 -0.000000 -0.000000
LeftFoot -2.021302 3.089641 -28.221811
LeftToeBase 11.421585 -0.000000 -0.000000
RightUpLeg -30.922019 -11.592962 -1.446994
RightLeg 6.430679 -0.000000 -0.000000
RightFoot -10.252863 -3.947173 -4.466576
RightToeBase -1.636414 -0.000000 0.000000
3600
root -1.036270 37.824884 1.041234 33.974256 11.300942 13.356017
Spine -3.450369 10.952802 -13.449026
Head -2.287477 44.092482 -17.662670
LeftShoulder -3.079622 -15.724699 6.939307
LeftArm -1.177677 -27.837596 -40.517067
LeftForeArm -1.820964 -0.000000 83.564592
LeftHand -20.821765 -0.000000 56.391201
LeftHandThumb1 -26.253704 0.000000 33.147579
RightShoulder -0.915212 -18.422348 -6.531030
RightArm 16.501067 -18.306166 55.604753
RightForeArm 189.622676 -0.000000 45.894270
RightHand -2.385563 -0.000000 8.418071
RightHandThumb1 -24.326973 -0.000000 -32.862282
LeftUpLeg -10.686874 9.386199 14.206032
LeftLeg 94.247742 -0.000000 -0.000000
LeftFoot -1.920930 3.003622 -28.077846
LeftToeBase 11.250248 -0.000000 -0.000000
RightUpLeg -30.815050 -11.703958 -1.253073
RightLeg 6.293083 -0.000000 -0.000000
RightFoot -10.218898 -3.756070 -4.602438
RightToeBase -1.622483 -0.000000 0.000000
3601
root -1.036433 37.821107 1.056121 33.948562 11.206940 13.308842
Spine -3.537456 10.970172 -13.515629
Head -2.415356 44.234839 -17.825917
LeftShoulder -3.134227 -15.726963 6.954603
LeftArm -1.226760 -27.861349 -40.490666
LeftForeArm -1.787935 -0.000000 83.612727
LeftHand -20.797708 0.000000 56.283068
LeftHandThumb1 -26.253704 0.000000 33.147579
RightShoulder -0.910220 -18.412098 -6.544028
RightArm 16.445742 -18.338711 55.636322
RightForeArm 189.541275 -0.000000 45.744959
RightHand -2.418072 -0.000000 8.465656
RightHandThumb1 -24.326973 -0.000000 -32.862282
LeftUpLeg -10.605810 9.342259 14.243663
LeftLeg 94.516959 -0.000000 -0.000000
LeftFoot -1.904867 2.914072 -27.773122
LeftToeBase 11.300943 -0.000000 -0.000000
RightUpLeg -30.773456 -11.815019 -1.131401
RightLeg 6.202450 -0.000000 -0.000000
RightFoot -10.203268 -3.614262 -4.677708
RightToeBase -1.663298 -0.000000 0.000000
3602
root -1.038054 37.817196 1.073289 33.931015 11.139864 13.262167
Spine -3.642612 11.000757 -13.577504
Head -2.362732 44.423005 -17.820432
LeftShoulder -3.151336 -15.700362 6.966070
LeftArm -1.233863 -27.887510 -40.489829
LeftForeArm -1.719854 0.000000 83.655682
LeftHand -20.762504 -0.000000 56.201258
LeftHandThumb1 -26.253704 0.000000 33.147579
RightShoulder -0.946284 -18.445333 -6.517212
RightArm 16.411105 -18.363238 55.639348
RightForeArm 189.484714 -0.000000 45.618917
RightHand -2.361571 -0.000000 8.437206
RightHandThumb1 -24.326973 -0.000000 -32.862282
LeftUpLeg -10.522580 9.265000 14.290122
LeftLeg 94.734394 -0.000000 -0.000000
LeftFoot -1.929834 2.795839 -27.725178
LeftToeBase 11.450629 -0.000000 -0.000000
RightUpLeg -30.736364 -11.983327 -0.976293
RightLeg 6.106806 -0.000000 -0.000000
RightFoot -10.208355 -3.417190 -4.735407
RightToeBase -1.602289 -0.000000 0.000000
3603
root -1.041954 37.813457 1.089108 33.900842 11.069267 13.187430
Spine -3.712414 11.037403 -13.610573
Head -2.477492 44.653082 -17.980421
LeftShoulder -3.184180 -15.713554 6.990244
LeftArm -1.258129 -27.916762 -40.513093
LeftForeArm -1.620172 -0.000000 83.702689
LeftHand -20.633344 -0.000000 56.050178
LeftHandThumb1 -26.253704 0.000000 33.147579
RightShoulder -0.981514 -18.436243 -6.486234
RightArm 16.369998 -18.390097 55.632215
RightForeArm 189.503805 -0.000000 45.481570
RightHand -2.325353 -0.000000 8.350597
RightHandThumb1 -24.326973 -0.000000 -32.862282
LeftUpLeg -10.420641 9.194357 14.368136
LeftLeg 94.912427 -0.000000 -0.000000
LeftFoot -1.873116 2.683846 -27.629856
LeftToeBase 11.434389 -0.000000 -0.000000
RightUpLeg -30.695655 -12.151824 -0.791891
RightLeg 6.007935 -0.000000 -0.000000
RightFoot -10.188656 -3.189330 -4.817322
RightToeBase -1.629678 -0.000000 0.000000
3604
root -1.042995 37.809039 1.104403 33.862691 11.023308 13.129876
Spine -3.766424 11.068874 -13.617016
Head -2.522076 44.851178 -18.090493
LeftShoulder -3.188319 -15.730234 6.990003
LeftArm -1.255178 -27.925609 -40.530455
LeftForeArm -1.498170 -0.000000 83.761064
LeftHand -20.770935 0.000000 56.031206
LeftHandThumb1 -26.253704 0.000000 33.147579
RightShoulder -1.032621 -18.446761 -6.474296
RightArm 16.351301 -18.412277 55.620894
RightForeArm 189.434673 -0.000000 45.312860
RightHand -2.366744 -0.000000 8.233424
RightHandThumb1 -24.326973 -0.000000 -32.862282
LeftUpLeg -10.305038 9.060845 14.426389
LeftLeg 95.053765 -0.000000 -0.000000
LeftFoot -1.831551 2.583063 -27.647742
LeftToeBase 11.497394 -0.000000 -0.000000
RightUpLeg -30.645514 -12.366582 -0.605346
RightLeg 5.915597 -0.000000 -0.000000
RightFoot -10.185449 -2.953203 -4.914742
RightToeBase -1.615865 -0.000000 0.000000
3605
root -1.046415 37.803911 1.120278 33.787066 10.888739 13.010257
Spine -3.801161 11.184787 -13.623520
Head -2.597387 45.105228 -18.188635
LeftShoulder -3.217130 -15.742351 7.002980
LeftArm -1.220514 -27.913693 -40.553064
LeftForeArm -1.301523 0.000000 83.813468
LeftHand -20.963839 -0.000000 56.179904
LeftHandThumb1 -26.253704 0.000000 33.147579
RightShoulder -1.031524 -18.444802 -6.475997
RightArm 16.322656 -18.408052 55.642651
RightForeArm 189.359583 0.000000 45.168137
RightHand -2.274436 -0.000000 8.283624
RightHandThumb1 -24.326973 -0.000000 -32.862282
LeftUpLeg -10.108833 9.006319 14.494972
LeftLeg 95.128470 -0.000000 -0.000000
LeftFoot -1.787066 2.452298 -27.780456
LeftToeBase 11.602182 -0.000000 -0.000000
RightUpLeg -30.563881 -12.371731 -0.474636
RightLeg 5.823392 -0.000000 -0.000000
RightFoot -10.150180 -2.799440 -4.943433
RightToeBase -1.688097 -0.000000 0.000000
3606
root -1.045165 37.799127 1.134558 33.771255 10.822002 12.970366
Spine -3.871772 11.192382 -13.648694
Head -2.618603 45.382901 -18.280676
LeftShoulder -3.252393 -15.773603 7.026357
LeftArm -1.212003 -27.932562 -40.606593
LeftForeArm -1.325690 -0.000000 83.851778
LeftHand -20.838289 -0.000000 55.986136
LeftHandThumb1 -26.253704 0.000000 33.147579
RightShoulder -1.048983 -18.453221 -6.491246
RightArm 16.293212 -18.378695 55.694384
RightForeArm 189.417547 -0.000000 45.006259
RightHand -2.202776 -0.000000 8.217643
RightHandThumb1 -24.326973 -0.000000 -32.862282
LeftUpLeg -9.969923 8.853628 14.488681
LeftLeg 95.177112 -0.000000 -0.000000
LeftFoot -1.809456 2.434301 -27.608479
LeftToeBase 11.360984 -0.000000 -0.000000
RightUpLeg -30.516384 -12.477400 -0.368542
RightLeg 5.720679 -0.000000 -0.000000
RightFoot -10.151954 -2.681638 -5.026486
RightToeBase -1.660140 -0.000000 0.000000
3607
root -1.045930 37.794776 1.149109 33.771974 10.769438 12.916254
Spine -3.963065 11.193458 -13.662945
Head -2.655930 45.685185 -18.346922
LeftShoulder -3.271045 -15.787167 7.065900
LeftArm -1.252114 -27.930015 -40.646840
LeftForeArm -1.254886 -0.000000 83.921425
LeftHand -20.705202 -0.000000 55.739422
LeftHandThumb1 -26.253704 0.000000 33.147579
RightShoulder -1.063123 -18.465691 -6.484669
RightArm 16.254452 -18.353661 55.725837
RightForeArm 189.304617 -0.000000 44.851400
RightHand -2.239248 -0.000000 8.155214
RightHandThumb1 -24.326973 -0.000000 -32.862282
LeftUpLeg -9.861624 8.701072 14.502701
LeftLeg 95.179665 -0.000000 -0.000000
LeftFoot -1.752250 2.425069 -27.638293
LeftToeBase 11.435164 -0.000000 -0.000000
RightUpLeg -30.491716 -12.579572 -0.240954
RightLeg 5.632534 -0.000000 -0.000000
RightFoot -10.145326 -2.551072 -5.083130
RightToeBase -1.677460 -0.000000 0.000000
3608
root -1.047576 37.791901 1.160520 33.783795 10.708387 12.856400
Spine -4.054508 11.198576 -13.674167
Head -2.698630 46.105716 -18.417395
LeftShoulder -3.301452 -15.811396 7.114307
LeftArm -1.229348 -27.855151 -40.701659
LeftForeArm -1.062035 -0.000000 84.018243
LeftHand -21.011548 0.000000 55.953565
LeftHandThumb1 -26.253704 0.000000 33.147579
RightShoulder -1.067893 -18.434375 -6.486719
RightArm 16.178176 -18.347996 55.768054
RightForeArm 189.234175 -0.000000 44.710626
RightHand -2.223439 -0.000000 8.183396
RightHandThumb1 -24.326973 -0.000000 -32.862282
LeftUpLeg -9.742221 8.543510 14.497247
LeftLeg 95.139635 -0.000000 -0.000000
LeftFoot -1.822744 2.455997 -27.566547
LeftToeBase 11.597100 -0.000000 -0.000000
RightUpLeg -30.485677 -12.645526 -0.125404
RightLeg 5.548521 -0.000000 -0.000000
RightFoot -10.119868 -2.439636 -5.122148
RightToeBase -1.666390 -0.000000 0.000000
3609
root -1.048833 37.787672 1.168731 33.798924 10.666938 12.812951
Spine -4.133276 11.195007 -13.671720
Head -2.876384 46.416020 -18.549238
LeftShoulder -3.311854 -15.842284 7.161756
LeftArm -1.227705 -27.818313 -40.764879
LeftForeArm -1.061449 -0.000000 84.043838
LeftHand -20.801406 -0.000000 55.810067
LeftHandThumb1 -26.253704 0.000000 33.147579
RightShoulder -1.074163 -18.446518 -6.518714
RightArm 16.150052 -18.326158 55.822454
RightForeArm 189.297732 -0.000000 44.565034
RightHand -2.082306 -0.000000 8.258394
RightHandThumb1 -24.326973 -0.000000 -32.862282
LeftUpLeg -9.639580 8.333534 14.470935
LeftLeg 95.083202 -0.000000 -0.000000
LeftFoot -1.886280 2.498690 -27.565374
LeftToeBase 11.746632 -0.000000 -0.000000
RightUpLeg -30.480778 -12.688824 -0.041730
RightLeg 5.476916 -0.000000 -0.000000
RightFoot -10.121305 -2.368325 -5.156138
RightToeBase -1.666298 -0.000000 0.000000
